<?xml version="1.0" encoding="utf-8"?>
<!DOCTYPE svg PUBLIC "-//W3C//DTD SVG 1.0//EN" "http://www.w3.org/TR/2001/REC-SVG-20010904/DTD/svg10.dtd">
<svg version="1.0" xmlns="http://www.w3.org/2000/svg" width="150px" height="150px" viewBox="0 0 150 150" preserveAspectRatio="xMidYMid meet">
  <g fill="#080000">
    <path d="M40.85 110.60 c-17.20 -17.20 -19.85 -20.05 -19.85 -21.35 0 -1.15 0.70 -2.20 3.10 -4.60 l3.10 -3.15 -2.85 -2.90 c-2.50 -2.50 -2.85 -3.10 -2.85 -4.85 0 -1.75 0.35 -2.35 2.85 -4.85 l2.85 -2.90 -3.10 -3.15 c-2.40 -2.45 -3.10 -3.45 -3.10 -4.65 0 -1.30 2.50 -4 19.75 -21.20 18.75 -18.75 19.85 -19.75 21.75 -19.90 1.85 -0.15 2.15 0.05 4.80 2.90 l2.90 3.05 2.05 -2.05 c1.70 -1.65 2.40 -2 4 -2 1.60 0 2.30 0.35 4 2 l2.05 2.05 2.85 -3.05 c2.50 -2.65 3.05 -3 4.70 -3 1.85 0 2.65 0.75 21.55 19.65 19.20 19.20 19.60 19.65 19.60 21.60 0 1.75 -0.35 2.30 -2.80 4.80 l-2.85 2.85 2.15 2.50 c1.15 1.40 2.40 2.65 2.80 2.80 0.45 0.15 0.70 1.05 0.70 2.40 0 1.90 -0.30 2.40 -2.85 5 l-2.85 2.90 2.85 2.90 c2.75 2.75 2.90 3.10 2.75 5 -0.15 2 -0.80 2.75 -19.65 21.60 -18.65 18.65 -19.55 19.50 -21.30 19.50 -1.65 0 -2.25 -0.40 -4.75 -3 l-2.90 -3.05 -2.05 2.05 c-2.80 2.75 -5 2.80 -7.75 0.05 l-1.95 -1.90 -2.85 2.90 c-2.60 2.65 -3.15 2.95 -4.95 2.95 -2 0 -2.30 -0.25 -21.90 -19.90z m22.55 8.25 c0.45 -0.50 -2.95 -4.15 -14.65 -15.85 -13.40 -13.40 -15.30 -15.10 -16 -14.50 -0.70 0.60 0.90 2.40 14.35 15.80 8.35 8.35 15.30 15.15 15.45 15.15 0.20 0.05 0.55 -0.25 0.85 -0.60z m42.75 -15.45 c7.65 -7.60 13.80 -14.10 13.60 -14.40 -0.65 -1.05 -1.65 -0.40 -6 4 -4.15 4.15 -4.65 4.50 -6.45 4.50 -2.75 0 -4.30 -1.50 -4.30 -4.20 0 -2 0.30 -2.35 7.75 -9.80 4.25 -4.25 7.75 -7.85 7.75 -8 0 -0.15 -6.75 6.45 -15.05 14.65 l-15.10 14.90 2.30 2.35 c3.25 3.30 3.25 4.90 0 8.20 -2 2 -2.20 2.45 -1.65 3.15 0.80 0.95 -0.60 2.20 17.15 -15.35z m-31.50 0.50 l-7.60 -7.60 -1.70 1.60 c-1.25 1.20 -2.10 1.60 -3.50 1.60 -1.75 0 -2.50 -0.60 -11.55 -9.50 -5.30 -5.20 -9.80 -9.50 -10 -9.50 -1.20 0 1.75 3.15 17.85 19.05 l18.10 17.90 3 -2.95 3 -3 -7.60 -7.60z m6.60 -30.90 l-13.50 -13.50 -6.40 6.40 -6.40 6.35 6.10 5.90 6.05 5.95 3.35 -3.30 c2.90 -2.85 3.55 -3.30 5.15 -3.30 2.50 0 4.40 1.75 4.40 4.05 0 1.45 -0.55 2.25 -3.55 5.20 l-3.50 3.50 4.65 4.35 4.65 4.40 6.25 -6.25 6.25 -6.25 -13.50 -13.50z m24.90 2.30 l2.40 -2.45 -2.95 -2.80 c-1.60 -1.55 -3.85 -3.70 -5 -4.80 l-2.10 -1.95 -3.75 3.70 -3.75 3.75 4.85 4.85 4.85 4.90 1.55 -1.40 c0.80 -0.75 2.55 -2.45 3.90 -3.80z m-69.90 -3.30 c2 -2.05 2.80 -2.50 4.20 -2.50 1.10 0 2.15 0.40 2.90 1.10 0.80 0.75 1.15 0.85 1.15 0.35 0 -0.35 6 -6.70 13.35 -14.05 14.75 -14.75 14.85 -14.85 17.75 -12.05 1.10 1.05 1.40 1.80 1.40 3.50 0 1.20 -0.20 2.15 -0.45 2.15 -0.25 0 -1 0.70 -1.60 1.55 l-1.10 1.55 5.35 5.20 c2.95 2.85 5.55 5.20 5.75 5.20 0.15 0 1.90 -1.60 3.80 -3.50 l3.50 -3.50 -9.85 -9.90 c-8.25 -8.25 -9.85 -10.10 -10 -11.50 -0.15 -1.55 -0.70 -1.05 -20 18.25 -10.95 10.90 -19.75 20 -19.60 20.25 0.45 0.75 0.95 0.45 3.45 -2.10z m22 -36.65 c5.60 -5.40 5.95 -5.85 5.20 -6.60 -0.80 -0.80 -1.85 0.15 -16 14.15 -13.55 13.40 -15.10 15.10 -14.45 15.85 0.60 0.75 1.60 -0.10 9.95 -8.40 5.10 -5.10 12 -11.85 15.30 -15z m46.80 7.60 c-13.15 -13 -15.30 -14.90 -15.90 -14.30 -0.65 0.60 1.30 2.75 14.45 15.75 13.50 13.40 15.25 14.95 15.90 14.30 0.65 -0.70 -0.90 -2.40 -14.45 -15.75z"/>
  </g>
  <g fill=""></g>
  <g fill="#ffffff">
    <path d="M45.90 106.10 c-9.05 -9 -16.40 -16.60 -16.40 -16.90 0 -0.25 0.90 -1.40 2 -2.45 l2 -1.95 16.60 16.45 c9.15 9.10 16.70 16.55 16.85 16.65 0.30 0.15 -4.05 4.60 -4.45 4.55 -0.15 0 -7.60 -7.35 -16.60 -16.35z"/>
    <path d="M87.50 120.25 l-2.20 -2.25 3.20 -3.25 3.20 -3.25 -3.20 -3.25 -3.20 -3.20 16.10 -15.85 c8.85 -8.70 16.10 -16 16.10 -16.15 0 -0.20 -8.50 -8.80 -18.85 -19.20 l-18.90 -18.85 1.15 -1.10 1.10 -1.15 20.60 20.60 20.60 20.60 -9.20 9.30 c-5.10 5.10 -9.35 9.50 -9.45 9.80 -0.20 0.60 1.90 2.95 2.60 2.95 0.25 0 2.95 -2.35 5.90 -5.25 3 -2.90 5.65 -5.25 5.85 -5.25 0.20 0 1.25 0.90 2.35 2 l1.95 2 -16.65 16.50 c-9.15 9.05 -16.65 16.50 -16.75 16.50 -0.05 0 -1.10 -1 -2.30 -2.25z"/>
    <path d="M56.40 100.80 c-10.70 -10.55 -19.40 -19.40 -19.40 -19.65 0 -0.45 3.10 -3.65 3.55 -3.65 0.15 0 3.75 3.50 8 7.80 4.25 4.30 9 8.90 10.60 10.30 l2.90 2.55 2.50 -2.45 2.45 -2.45 9.15 9.15 9.10 9.10 -4.25 4.25 c-2.30 2.35 -4.45 4.25 -4.75 4.25 -0.25 0 -9.20 -8.65 -19.85 -19.20z"/>
    <path d="M76.15 96.20 c-3.10 -2.90 -5.65 -5.55 -5.65 -5.85 0 -0.35 1.85 -2.45 4.10 -4.70 l4.10 -4.10 -1.40 -1.30 c-0.75 -0.70 -1.50 -1.25 -1.70 -1.25 -0.20 0 -2.15 1.80 -4.40 4.05 l-4.05 4 -7.65 -7.40 -7.65 -7.45 7.60 -7.45 c4.20 -4.15 7.90 -7.55 8.20 -7.65 0.35 -0.05 7.25 6.50 15.35 14.65 l14.75 14.75 -7.50 7.50 c-4.10 4.10 -7.70 7.50 -8 7.50 -0.25 0 -3.05 -2.40 -6.10 -5.30z"/>
    <path d="M51.15 81.40 l-10.65 -10.65 -3.40 3.40 c-1.85 1.85 -3.50 3.35 -3.70 3.35 -0.15 0 -1.10 -0.80 -2.10 -1.80 l-1.85 -1.85 4.75 -4.80 c2.60 -2.65 13.15 -13.20 23.40 -23.45 l18.70 -18.60 1.10 1.15 c0.60 0.65 1.10 1.40 1.10 1.65 0 0.25 -1 1.50 -2.25 2.70 -1.25 1.20 -2.25 2.45 -2.25 2.70 0 0.30 4.80 5.30 10.60 11.15 l10.65 10.65 -5 5 c-2.75 2.75 -5.10 5 -5.25 5 -0.45 0 -14 -13.20 -14 -13.60 0 -0.15 1 -1.35 2.25 -2.60 1.25 -1.30 2.25 -2.50 2.25 -2.75 0 -0.20 -0.65 -0.95 -1.40 -1.70 l-1.40 -1.35 -13.45 13.50 -13.50 13.50 9 9 c7.55 7.55 8.90 9.15 8.45 9.85 -0.30 0.45 -0.75 0.90 -1 1 -0.25 0.10 -5.25 -4.65 -11.05 -10.45z"/>
    <path d="M94.30 77.05 l-6.40 -6.45 5.10 -4.95 c2.80 -2.70 5.25 -4.95 5.45 -5 0.15 -0.10 3.20 2.65 6.75 6.05 l6.45 6.15 -5.35 5.30 c-3 2.95 -5.45 5.35 -5.50 5.35 0 0 -2.95 -2.90 -6.50 -6.45z"/>
    <path d="M31.60 60.55 c-1.15 -1.10 -2.10 -2.15 -2.10 -2.40 0 -0.25 7.45 -7.85 16.55 -16.85 l16.55 -16.45 2.35 2.35 2.30 2.35 -6.75 6.55 c-3.70 3.55 -11.25 11 -16.75 16.45 l-10.05 9.95 -2.10 -1.95z"/>
    <path d="M102.05 45.90 l-16.65 -16.55 2.25 -2.20 2.20 -2.25 16.70 16.50 16.70 16.50 -2 2.25 c-1.10 1.25 -2.10 2.25 -2.25 2.30 -0.15 0 -7.75 -7.45 -16.95 -16.55z"/>
  </g>
</svg>